# xmcd
#
# Track frame offsets:
#	150
#	26856
#	48826
#	73806
#	97815
#	124563
#	144769
#	163421
#
# Disc length: 2475 seconds
#
# Revision: 0
# Processed by: cddbd v1.5.2PL0 Copyright (c) Steve Scherf et al.
# Submitted via: audiograbber 1.83.01
#
DISCID=6709a908
DTITLE=Stigmatized - Whispers Of The Dead
DYEAR=2010
DGENRE=Death Metal
TTITLE0=The Fall
TTITLE1=Love and Blood
TTITLE2=Whispers of the Dead
TTITLE3=Time Bomb
TTITLE4=Impulse
TTITLE5=Disturbance of Equilibrium
TTITLE6=Carved in Bone
TTITLE7=The Addicted
EXTD=
EXTT0=
EXTT1=
EXTT2=
EXTT3=
EXTT4=
EXTT5=
EXTT6=
EXTT7=
PLAYORDER=
